<svg xmlns="http://www.w3.org/2000/svg" viewBox="76 76 348 348"><path d="M108.333 108.333v283.334h283.334V193.333L380.333 182h-17L335 165l-17-28.333v-17l-11.333-11.334H108.333Z" style="stroke:#000;fill:none;stroke-width:2px"/><path d="m374.951 85.667 19.264 5.166.284.076.208.209 14.103 14.116.209.208.076.286 5.162 19.282.076.285-.076.286-5.162 19.282-.076.285-.209.208-14.103 14.116-.208.209-.284.076-19.264 5.167-.284.076-.286-.076-19.264-5.167-.285-.076-.206-.209-14.105-14.116-.209-.208-.076-.285-5.16-19.282-.076-.286.076-.285 5.16-19.282.076-.286.209-.208 14.105-14.116.206-.209.285-.076 19.264-5.166Z" style="fill:none;stroke:#000;transform-origin:374.667px 125.334px;stroke-width:2px" transform="rotate(45 0 0)"/><path d="M80 80h340v340H80z" style="stroke:#000;fill:none;stroke-width:2px"/><circle cx="374.667" cy="125.333" r="17" style="stroke:#000;fill:none;stroke-width:2px"/><path d="M125.333 184.267h31.733V216h-31.733zM157.067 184.267H188.8V216h-31.733zM157.067 216H188.8v31.733h-31.733zM157.067 247.733H188.8v31.733h-31.733zM157.067 279.467H188.8V311.2h-31.733zM157.067 311.2H188.8v31.733h-31.733zM188.8 184.267h31.733V216H188.8zM188.8 216h31.733v31.733H188.8zM188.8 247.733h31.733v31.733H188.8zM188.8 279.467h31.733V311.2H188.8zM188.8 311.2h31.733v31.733H188.8z" style="stroke:#000;fill:none"/><path d="M220.533 184.267h31.733V216h-31.733zM220.533 216h31.733v31.733h-31.733zM220.533 247.733h31.733v31.733h-31.733zM220.533 279.467h31.733V311.2h-31.733zM220.533 311.2h31.733v31.733h-31.733zM252.267 184.267H284V216h-31.733zM252.267 216H284v31.733h-31.733zM252.267 247.733H284v31.733h-31.733zM252.267 279.467H284V311.2h-31.733zM252.267 311.2H284v31.733h-31.733zM284 184.267h31.733V216H284zM284 216h31.733v31.733H284zM284 247.733h31.733v31.733H284zM284 279.467h31.733V311.2H284zM284 311.2h31.733v31.733H284z" style="stroke:#000;fill:none"/><path d="M139.484 198.462h-2.931l-.81 3.309h2.711v1.188h-3.018l-.915 3.705h-1.135l.914-3.705h-2.375l-.915 3.705h-1.135l.914-3.705h-2.622v-1.188h2.93l.81-3.309h-2.711v-1.188h3.019l.924-3.714h1.135l-.924 3.714h2.376l.924-3.714h1.135l-.923 3.714h2.622v1.188Zm-4.04-.017h-2.411l-.826 3.343h2.411l.826-3.343Zm18.789.017h-2.931l-.809 3.309h2.711v1.188h-3.019l-.916 3.705h-1.135l.915-3.705h-2.375l-.916 3.705h-1.135l.915-3.705h-2.622v-1.188h2.931l.81-3.309h-2.711v-1.188h3.018l.924-3.714h1.135l-.923 3.714h2.375l.924-3.714h1.135l-.923 3.714h2.622v1.188Zm-4.039-.017h-2.412l-.826 3.343h2.411l.827-3.343ZM139.484 230.195h-2.931l-.81 3.309h2.711v1.188h-3.018l-.915 3.705h-1.135l.914-3.705h-2.375l-.915 3.705h-1.135l.914-3.705h-2.622v-1.188h2.93l.81-3.309h-2.711v-1.188h3.019l.924-3.714h1.135l-.924 3.714h2.376l.924-3.714h1.135l-.923 3.714h2.622v1.188Zm-4.04-.017h-2.411l-.826 3.343h2.411l.826-3.343Zm18.789.017h-2.931l-.809 3.309h2.711v1.188h-3.019l-.916 3.705h-1.135l.915-3.705h-2.375l-.916 3.705h-1.135l.915-3.705h-2.622v-1.188h2.931l.81-3.309h-2.711v-1.188h3.018l.924-3.714h1.135l-.923 3.714h2.375l.924-3.714h1.135l-.923 3.714h2.622v1.188Zm-4.039-.017h-2.412l-.826 3.343h2.411l.827-3.343Z"/><path d="M125.333 216h31.733v31.733h-31.733z" style="stroke:#000;fill:none"/><path d="M139.484 261.928h-2.931l-.81 3.31h2.711v1.187h-3.018l-.915 3.705h-1.135l.914-3.705h-2.375l-.915 3.705h-1.135l.914-3.705h-2.622v-1.187h2.93l.81-3.31h-2.711v-1.187h3.019l.924-3.714h1.135l-.924 3.714h2.376l.924-3.714h1.135l-.923 3.714h2.622v1.187Zm-4.04-.017h-2.411l-.826 3.344h2.411l.826-3.344Zm18.789.017h-2.931l-.809 3.31h2.711v1.187h-3.019l-.916 3.705h-1.135l.915-3.705h-2.375l-.916 3.705h-1.135l.915-3.705h-2.622v-1.187h2.931l.81-3.31h-2.711v-1.187h3.018l.924-3.714h1.135l-.923 3.714h2.375l.924-3.714h1.135l-.923 3.714h2.622v1.187Zm-4.039-.017h-2.412l-.826 3.344h2.411l.827-3.344Z"/><path d="M125.333 247.733h31.733v31.733h-31.733z" style="stroke:#000;fill:none"/><path d="M139.484 293.662h-2.931l-.81 3.309h2.711v1.188h-3.018l-.915 3.704h-1.135l.914-3.704h-2.375l-.915 3.704h-1.135l.914-3.704h-2.622v-1.188h2.93l.81-3.309h-2.711v-1.188h3.019l.924-3.714h1.135l-.924 3.714h2.376l.924-3.714h1.135l-.923 3.714h2.622v1.188Zm-4.04-.017h-2.411l-.826 3.343h2.411l.826-3.343Zm18.789.017h-2.931l-.809 3.309h2.711v1.188h-3.019l-.916 3.704h-1.135l.915-3.704h-2.375l-.916 3.704h-1.135l.915-3.704h-2.622v-1.188h2.931l.81-3.309h-2.711v-1.188h3.018l.924-3.714h1.135l-.923 3.714h2.375l.924-3.714h1.135l-.923 3.714h2.622v1.188Zm-4.039-.017h-2.412l-.826 3.343h2.411l.827-3.343Z"/><path d="M125.333 279.467h31.733V311.2h-31.733z" style="stroke:#000;fill:none"/><path d="M139.484 325.395h-2.931l-.81 3.309h2.711v1.188h-3.018l-.915 3.705h-1.135l.914-3.705h-2.375l-.915 3.705h-1.135l.914-3.705h-2.622v-1.188h2.93l.81-3.309h-2.711v-1.188h3.019l.924-3.714h1.135l-.924 3.714h2.376l.924-3.714h1.135l-.923 3.714h2.622v1.188Zm-4.04-.017h-2.411l-.826 3.343h2.411l.826-3.343Zm18.789.017h-2.931l-.809 3.309h2.711v1.188h-3.019l-.916 3.705h-1.135l.915-3.705h-2.375l-.916 3.705h-1.135l.915-3.705h-2.622v-1.188h2.931l.81-3.309h-2.711v-1.188h3.018l.924-3.714h1.135l-.923 3.714h2.375l.924-3.714h1.135l-.923 3.714h2.622v1.188Zm-4.039-.017h-2.412l-.826 3.343h2.411l.827-3.343Z"/><path d="M125.333 311.2h31.733v31.733h-31.733z" style="stroke:#000;fill:none"/><path d="M329.884 198.462h-2.931l-.81 3.309h2.711v1.188h-3.018l-.915 3.705h-1.135l.914-3.705h-2.375l-.915 3.705h-1.136l.915-3.705h-2.622v-1.188h2.93l.81-3.309h-2.711v-1.188h3.019l.923-3.714h1.136l-.924 3.714h2.376l.924-3.714h1.135l-.924 3.714h2.623v1.188Zm-4.04-.017h-2.411l-.826 3.343h2.41l.827-3.343Zm18.789.017h-2.931l-.809 3.309h2.711v1.188h-3.019l-.916 3.705h-1.135l.915-3.705h-2.375l-.916 3.705h-1.135l.915-3.705h-2.622v-1.188h2.931l.81-3.309h-2.711v-1.188h3.018l.924-3.714h1.135l-.923 3.714h2.375l.924-3.714h1.135l-.923 3.714h2.622v1.188Zm-4.039-.017h-2.412l-.826 3.343h2.411l.827-3.343Z"/><path d="M315.733 184.267h31.733V216h-31.733z" style="stroke:#000;fill:none"/><path d="M329.884 230.195h-2.931l-.81 3.309h2.711v1.188h-3.018l-.915 3.705h-1.135l.914-3.705h-2.375l-.915 3.705h-1.136l.915-3.705h-2.622v-1.188h2.93l.81-3.309h-2.711v-1.188h3.019l.923-3.714h1.136l-.924 3.714h2.376l.924-3.714h1.135l-.924 3.714h2.623v1.188Zm-4.04-.017h-2.411l-.826 3.343h2.41l.827-3.343Zm18.789.017h-2.931l-.809 3.309h2.711v1.188h-3.019l-.916 3.705h-1.135l.915-3.705h-2.375l-.916 3.705h-1.135l.915-3.705h-2.622v-1.188h2.931l.81-3.309h-2.711v-1.188h3.018l.924-3.714h1.135l-.923 3.714h2.375l.924-3.714h1.135l-.923 3.714h2.622v1.188Zm-4.039-.017h-2.412l-.826 3.343h2.411l.827-3.343Z"/><path d="M315.733 216h31.733v31.733h-31.733z" style="stroke:#000;fill:none"/><path d="M329.884 261.928h-2.931l-.81 3.31h2.711v1.187h-3.018l-.915 3.705h-1.135l.914-3.705h-2.375l-.915 3.705h-1.136l.915-3.705h-2.622v-1.187h2.93l.81-3.31h-2.711v-1.187h3.019l.923-3.714h1.136l-.924 3.714h2.376l.924-3.714h1.135l-.924 3.714h2.623v1.187Zm-4.04-.017h-2.411l-.826 3.344h2.41l.827-3.344Zm18.789.017h-2.931l-.809 3.31h2.711v1.187h-3.019l-.916 3.705h-1.135l.915-3.705h-2.375l-.916 3.705h-1.135l.915-3.705h-2.622v-1.187h2.931l.81-3.31h-2.711v-1.187h3.018l.924-3.714h1.135l-.923 3.714h2.375l.924-3.714h1.135l-.923 3.714h2.622v1.187Zm-4.039-.017h-2.412l-.826 3.344h2.411l.827-3.344Z"/><path d="M315.733 247.733h31.733v31.733h-31.733z" style="stroke:#000;fill:none"/><path d="M329.884 293.662h-2.931l-.81 3.309h2.711v1.188h-3.018l-.915 3.704h-1.135l.914-3.704h-2.375l-.915 3.704h-1.136l.915-3.704h-2.622v-1.188h2.93l.81-3.309h-2.711v-1.188h3.019l.923-3.714h1.136l-.924 3.714h2.376l.924-3.714h1.135l-.924 3.714h2.623v1.188Zm-4.04-.017h-2.411l-.826 3.343h2.41l.827-3.343Zm18.789.017h-2.931l-.809 3.309h2.711v1.188h-3.019l-.916 3.704h-1.135l.915-3.704h-2.375l-.916 3.704h-1.135l.915-3.704h-2.622v-1.188h2.931l.81-3.309h-2.711v-1.188h3.018l.924-3.714h1.135l-.923 3.714h2.375l.924-3.714h1.135l-.923 3.714h2.622v1.188Zm-4.039-.017h-2.412l-.826 3.343h2.411l.827-3.343Z"/><path d="M315.733 279.467h31.733V311.2h-31.733z" style="stroke:#000;fill:none"/><path d="M329.884 325.395h-2.931l-.81 3.309h2.711v1.188h-3.018l-.915 3.705h-1.135l.914-3.705h-2.375l-.915 3.705h-1.136l.915-3.705h-2.622v-1.188h2.93l.81-3.309h-2.711v-1.188h3.019l.923-3.714h1.136l-.924 3.714h2.376l.924-3.714h1.135l-.924 3.714h2.623v1.188Zm-4.04-.017h-2.411l-.826 3.343h2.41l.827-3.343Zm18.789.017h-2.931l-.809 3.309h2.711v1.188h-3.019l-.916 3.705h-1.135l.915-3.705h-2.375l-.916 3.705h-1.135l.915-3.705h-2.622v-1.188h2.931l.81-3.309h-2.711v-1.188h3.018l.924-3.714h1.135l-.923 3.714h2.375l.924-3.714h1.135l-.923 3.714h2.622v1.188Zm-4.039-.017h-2.412l-.826 3.343h2.411l.827-3.343Z"/><path d="M315.733 311.2h31.733v31.733h-31.733z" style="stroke:#000;fill:none"/><path d="M171.217 166.728h-2.93l-.811 3.31h2.711v1.187h-3.018l-.914 3.705h-1.136l.915-3.705h-2.376l-.915 3.705h-1.135l.914-3.705H159.9v-1.187h2.931l.809-3.31h-2.711v-1.187h3.019l.924-3.714h1.135l-.923 3.714h2.375l.924-3.714h1.136l-.924 3.714h2.622v1.187Zm-4.04-.017h-2.411l-.826 3.344h2.411l.826-3.344Zm18.79.017h-2.931l-.809 3.31h2.711v1.187h-3.02l-.915 3.705h-1.136l.916-3.705h-2.376l-.915 3.705h-1.136l.916-3.705h-2.623v-1.187h2.931l.81-3.31h-2.711v-1.187h3.018l.924-3.714h1.136l-.924 3.714h2.375l.924-3.714h1.136l-.924 3.714h2.623v1.187Zm-4.04-.017h-2.411l-.827 3.344h2.411l.827-3.344Z"/><path d="M157.067 152.533H188.8v31.733h-31.733z" style="stroke:#000;fill:none"/><path d="M202.951 166.728h-2.931l-.81 3.31h2.711v1.187h-3.019l-.914 3.705h-1.136l.915-3.705h-2.376l-.914 3.705h-1.136l.915-3.705h-2.623v-1.187h2.931l.809-3.31h-2.711v-1.187h3.02l.923-3.714h1.136l-.924 3.714h2.376l.923-3.714h1.136l-.924 3.714h2.623v1.187Zm-4.041-.017h-2.41l-.826 3.344h2.41l.826-3.344Zm18.79.017h-2.931l-.809 3.31h2.711v1.187h-3.019l-.916 3.705H211.6l.916-3.705h-2.375l-.916 3.705h-1.136l.916-3.705h-2.623v-1.187h2.931l.811-3.31h-2.711v-1.187h3.018l.923-3.714h1.136l-.924 3.714h2.376l.923-3.714h1.136l-.924 3.714h2.623v1.187Zm-4.039-.017h-2.412l-.826 3.344h2.41l.828-3.344Z"/><path d="M188.8 152.533h31.733v31.733H188.8z" style="stroke:#000;fill:none"/><path d="M234.684 166.728h-2.931l-.81 3.31h2.711v1.187h-3.018l-.915 3.705h-1.135l.914-3.705h-2.375l-.915 3.705h-1.135l.914-3.705h-2.622v-1.187h2.93l.81-3.31h-2.711v-1.187h3.019l.924-3.714h1.135l-.924 3.714h2.376l.924-3.714h1.135l-.923 3.714h2.622v1.187Zm-4.04-.017h-2.411l-.826 3.344h2.411l.826-3.344Zm18.789.017h-2.931l-.809 3.31h2.711v1.187h-3.019l-.916 3.705h-1.135l.915-3.705h-2.375l-.916 3.705h-1.135l.915-3.705h-2.622v-1.187h2.931l.81-3.31h-2.711v-1.187h3.018l.924-3.714h1.135l-.923 3.714h2.375l.924-3.714h1.135l-.923 3.714h2.622v1.187Zm-4.039-.017h-2.412l-.826 3.344h2.411l.827-3.344Z"/><path d="M220.533 152.533h31.733v31.733h-31.733z" style="stroke:#000;fill:none"/><path d="M266.417 166.728h-2.93l-.811 3.31h2.711v1.187h-3.018l-.914 3.705h-1.136l.915-3.705h-2.376l-.915 3.705h-1.135l.914-3.705H255.1v-1.187h2.931l.809-3.31h-2.711v-1.187h3.019l.924-3.714h1.135l-.923 3.714h2.375l.924-3.714h1.136l-.924 3.714h2.622v1.187Zm-4.04-.017h-2.411l-.826 3.344h2.411l.826-3.344Zm18.79.017h-2.931l-.809 3.31h2.71v1.187h-3.019l-.915 3.705h-1.136l.916-3.705h-2.376l-.915 3.705h-1.136l.916-3.705h-2.623v-1.187h2.931l.81-3.31h-2.711v-1.187h3.018l.924-3.714h1.136l-.924 3.714h2.375l.924-3.714h1.136l-.924 3.714h2.623v1.187Zm-4.04-.017h-2.411l-.827 3.344h2.411l.827-3.344Z"/><path d="M252.267 152.533H284v31.733h-31.733z" style="stroke:#000;fill:none"/><path d="M298.151 166.728h-2.931l-.81 3.31h2.71v1.187h-3.018l-.914 3.705h-1.136l.915-3.705h-2.376l-.914 3.705h-1.136l.915-3.705h-2.623v-1.187h2.931l.809-3.31h-2.711v-1.187h3.019l.924-3.714h1.136l-.924 3.714h2.376l.923-3.714h1.136l-.924 3.714h2.623v1.187Zm-4.041-.017h-2.41l-.826 3.344h2.41l.826-3.344Zm18.79.017h-2.931l-.809 3.31h2.711v1.187h-3.019l-.916 3.705H306.8l.916-3.705h-2.375l-.916 3.705h-1.136l.916-3.705h-2.623v-1.187h2.931l.811-3.31h-2.711v-1.187h3.018l.923-3.714h1.136l-.924 3.714h2.376l.923-3.714h1.136l-.924 3.714h2.623v1.187Zm-4.039-.017h-2.412l-.826 3.344h2.41l.828-3.344Z"/><path d="M284 152.533h31.733v31.733H284z" style="stroke:#000;fill:none"/><path d="M171.217 357.128h-2.93l-.811 3.31h2.711v1.187h-3.018l-.914 3.705h-1.136l.915-3.705h-2.376l-.915 3.705h-1.135l.914-3.705H159.9v-1.187h2.931l.809-3.31h-2.711v-1.188h3.019l.924-3.713h1.135l-.923 3.713h2.375l.924-3.713h1.136l-.924 3.713h2.622v1.188Zm-4.04-.017h-2.411l-.826 3.344h2.411l.826-3.344Zm18.79.017h-2.931l-.809 3.31h2.711v1.187h-3.02l-.915 3.705h-1.136l.916-3.705h-2.376l-.915 3.705h-1.136l.916-3.705h-2.623v-1.187h2.931l.81-3.31h-2.711v-1.188h3.018l.924-3.713h1.136l-.924 3.713h2.375l.924-3.713h1.136l-.924 3.713h2.623v1.188Zm-4.04-.017h-2.411l-.827 3.344h2.411l.827-3.344Z"/><path d="M157.067 342.933H188.8v31.733h-31.733z" style="stroke:#000;fill:none"/><path d="M202.951 357.128h-2.931l-.81 3.31h2.711v1.187h-3.019l-.914 3.705h-1.136l.915-3.705h-2.376l-.914 3.705h-1.136l.915-3.705h-2.623v-1.187h2.931l.809-3.31h-2.711v-1.188h3.02l.923-3.713h1.136l-.924 3.713h2.376l.923-3.713h1.136l-.924 3.713h2.623v1.188Zm-4.041-.017h-2.41l-.826 3.344h2.41l.826-3.344Zm18.79.017h-2.931l-.809 3.31h2.711v1.187h-3.019l-.916 3.705H211.6l.916-3.705h-2.375l-.916 3.705h-1.136l.916-3.705h-2.623v-1.187h2.931l.811-3.31h-2.711v-1.188h3.018l.923-3.713h1.136l-.924 3.713h2.376l.923-3.713h1.136l-.924 3.713h2.623v1.188Zm-4.039-.017h-2.412l-.826 3.344h2.41l.828-3.344Z"/><path d="M188.8 342.933h31.733v31.733H188.8z" style="stroke:#000;fill:none"/><path d="M234.684 357.128h-2.931l-.81 3.31h2.711v1.187h-3.018l-.915 3.705h-1.135l.914-3.705h-2.375l-.915 3.705h-1.135l.914-3.705h-2.622v-1.187h2.93l.81-3.31h-2.711v-1.188h3.019l.924-3.713h1.135l-.924 3.713h2.376l.924-3.713h1.135l-.923 3.713h2.622v1.188Zm-4.04-.017h-2.411l-.826 3.344h2.411l.826-3.344Zm18.789.017h-2.931l-.809 3.31h2.711v1.187h-3.019l-.916 3.705h-1.135l.915-3.705h-2.375l-.916 3.705h-1.135l.915-3.705h-2.622v-1.187h2.931l.81-3.31h-2.711v-1.188h3.018l.924-3.713h1.135l-.923 3.713h2.375l.924-3.713h1.135l-.923 3.713h2.622v1.188Zm-4.039-.017h-2.412l-.826 3.344h2.411l.827-3.344Z"/><path d="M220.533 342.933h31.733v31.733h-31.733z" style="stroke:#000;fill:none"/><path d="M266.417 357.128h-2.93l-.811 3.31h2.711v1.187h-3.018l-.914 3.705h-1.136l.915-3.705h-2.376l-.915 3.705h-1.135l.914-3.705H255.1v-1.187h2.931l.809-3.31h-2.711v-1.188h3.019l.924-3.713h1.135l-.923 3.713h2.375l.924-3.713h1.136l-.924 3.713h2.622v1.188Zm-4.04-.017h-2.411l-.826 3.344h2.411l.826-3.344Zm18.79.017h-2.931l-.809 3.31h2.71v1.187h-3.019l-.915 3.705h-1.136l.916-3.705h-2.376l-.915 3.705h-1.136l.916-3.705h-2.623v-1.187h2.931l.81-3.31h-2.711v-1.188h3.018l.924-3.713h1.136l-.924 3.713h2.375l.924-3.713h1.136l-.924 3.713h2.623v1.188Zm-4.04-.017h-2.411l-.827 3.344h2.411l.827-3.344Z"/><path d="M252.267 342.933H284v31.733h-31.733z" style="stroke:#000;fill:none"/><path d="M298.151 357.128h-2.931l-.81 3.31h2.71v1.187h-3.018l-.914 3.705h-1.136l.915-3.705h-2.376l-.914 3.705h-1.136l.915-3.705h-2.623v-1.187h2.931l.809-3.31h-2.711v-1.188h3.019l.924-3.713h1.136l-.924 3.713h2.376l.923-3.713h1.136l-.924 3.713h2.623v1.188Zm-4.041-.017h-2.41l-.826 3.344h2.41l.826-3.344Zm18.79.017h-2.931l-.809 3.31h2.711v1.187h-3.019l-.916 3.705H306.8l.916-3.705h-2.375l-.916 3.705h-1.136l.916-3.705h-2.623v-1.187h2.931l.811-3.31h-2.711v-1.188h3.018l.923-3.713h1.136l-.924 3.713h2.376l.923-3.713h1.136l-.924 3.713h2.623v1.188Zm-4.039-.017h-2.412l-.826 3.344h2.41l.828-3.344Z"/><path d="M284 342.933h31.733v31.733H284z" style="stroke:#000;fill:none"/></svg>